<svg width="516" height="160" viewBox="0 0 516 160" fill="none" xmlns="http://www.w3.org/2000/svg">
<path d="M93.6717 44.2472C93.9085 38.3286 92.1803 33.7595 88.4871 30.5398C84.8413 27.3201 79.3252 25.7102 71.9388 25.7102C66.9199 25.7102 62.5638 26.4205 58.8706 27.8409C55.1774 29.214 52.2181 31.1316 49.9928 33.5938C47.8147 36.0085 46.4653 38.8021 45.9445 41.9744C45.4236 44.5786 45.5894 46.8513 46.4416 48.7926C47.3413 50.7339 48.738 52.4148 50.632 53.8352C52.5733 55.2083 54.8697 56.4157 57.5212 57.4574C60.1727 58.4517 62.9899 59.304 65.9729 60.0142L78.4729 63.1392C84.5808 64.5597 90.0733 66.4536 94.9501 68.821C99.8744 71.1884 103.994 74.1004 107.308 77.5568C110.67 81.0133 113.037 85.0852 114.41 89.7727C115.783 94.4602 115.973 99.8343 114.979 105.895C113.463 114.796 109.936 122.514 104.396 129.048C98.8564 135.535 91.5884 140.578 82.5922 144.176C73.596 147.727 63.1793 149.503 51.3422 149.503C39.5998 149.503 29.6803 147.704 21.5837 144.105C13.4871 140.507 7.5922 135.18 3.89902 128.125C0.253183 121.023 -0.835832 112.24 0.631971 101.776H30.3905C29.8697 106.652 30.5799 110.724 32.5212 113.991C34.5098 117.211 37.4691 119.65 41.399 121.307C45.3289 122.917 49.9454 123.722 55.2485 123.722C60.5041 123.722 65.168 122.964 69.2399 121.449C73.3592 119.934 76.6973 117.827 79.2541 115.128C81.811 112.429 83.3735 109.328 83.9416 105.824C84.5098 102.557 84.0126 99.8106 82.4501 97.5852C80.8876 95.3598 78.3782 93.4659 74.9217 91.9034C71.5127 90.2936 67.275 88.8731 62.2087 87.6421L47.0098 83.6648C35.2674 80.6818 26.3895 76.018 20.3763 69.6733C14.363 63.3286 12.2087 54.7822 13.9132 44.0341C15.4284 35.2273 19.0979 27.5331 24.9217 20.9517C30.793 14.3229 38.1793 9.18561 47.0808 5.53977C56.0297 1.84659 65.8072 0 76.4132 0C87.2087 0 96.3233 1.87027 103.757 5.6108C111.191 9.30398 116.612 14.465 120.021 21.0938C123.43 27.7225 124.472 35.4403 123.146 44.2472H93.6717Z" fill="white"/>
<path d="M191.559 96.875H217.695L229.485 113.778L240.209 128.835L261.658 159.375H232.965L218.263 138.778L211.161 126.563L191.559 96.875ZM274.229 76.7046C271.578 92.2349 266.44 105.421 258.817 116.264C251.242 127.107 241.985 135.346 231.047 140.98C220.157 146.615 208.415 149.432 195.82 149.432C182.61 149.432 171.223 146.425 161.658 140.412C152.141 134.399 145.252 125.71 140.991 114.347C136.729 102.936 135.924 89.1809 138.576 73.0824C141.133 57.5047 146.223 44.2945 153.846 33.4517C161.469 22.5616 170.773 14.2756 181.758 8.59375C192.743 2.86458 204.556 0 217.198 0C230.314 0 241.63 3.0303 251.147 9.09091C260.711 15.1515 267.6 23.911 271.815 35.3693C276.076 46.7803 276.881 60.5587 274.229 76.7046ZM243.618 73.0824C245.276 63.0919 245.205 54.7112 243.405 47.9403C241.654 41.1222 238.434 35.9612 233.746 32.4574C229.059 28.9536 223.14 27.2017 215.991 27.2017C208.225 27.2017 201.1 29.143 194.613 33.0256C188.173 36.9081 182.728 42.5426 178.278 49.929C173.874 57.268 170.82 66.1932 169.116 76.7046C167.411 86.7424 167.458 95.1231 169.258 101.847C171.104 108.57 174.395 113.66 179.13 117.116C183.912 120.526 189.854 122.23 196.957 122.23C204.674 122.23 211.729 120.336 218.121 116.548C224.561 112.713 229.982 107.15 234.386 99.858C238.789 92.5189 241.867 83.5938 243.618 73.0824Z" fill="white"/>
<path d="M286.392 147.443L310.54 1.98864H408.551L404.29 27.3438H337.031L331.349 62.0028H393.565L389.304 87.358H327.088L321.406 122.088H388.949L384.687 147.443H286.392Z" fill="white"/>
<path d="M407.93 147.443L410.841 129.403L475.117 63.2812L475.401 62.5H423.839L427.887 38.3523H515.955L512.83 58.0256L451.964 122.514L451.68 123.295H503.668L499.762 147.443H407.93Z" fill="white"/>
</svg>
